<?xml version="1.0" standalone="no"?>
<!DOCTYPE svg PUBLIC "-//W3C//DTD SVG 20010904//EN"
 "http://www.w3.org/TR/2001/REC-SVG-20010904/DTD/svg10.dtd">
<svg version="1.0" xmlns="http://www.w3.org/2000/svg"
 width="794.000000pt" height="794.000000pt" viewBox="0 0 794.000000 794.000000"
 preserveAspectRatio="xMidYMid meet">

<g transform="translate(0.000000,794.000000) scale(0.100000,-0.100000)"
fill="#000000" stroke="none">
<path d="M3620 5911 l0 -490 48 -3 c42 -3 47 -5 44 -25 -3 -22 0 -23 52 -23
l56 0 0 515 0 515 -100 0 -100 0 0 -489z"/>
<path d="M4020 5800 l0 -600 100 0 100 0 0 600 0 600 -100 0 -100 0 0 -600z"/>
<path d="M4420 5817 l0 -583 100 0 100 1 0 583 0 582 -100 0 -100 0 0 -583z"/>
<path d="M3270 5345 c-122 -56 -130 -57 -130 -4 l0 40 -31 -18 c-17 -10 -43
-32 -58 -49 -14 -17 -54 -51 -88 -77 -46 -35 -80 -74 -133 -154 -40 -60 -93
-126 -117 -148 -42 -37 -45 -43 -38 -73 11 -52 51 -92 92 -92 28 0 45 10 91
53 75 70 86 76 223 121 l116 38 55 -16 c114 -33 208 -158 208 -278 0 -42 -9
-78 -37 -143 -40 -98 -39 -108 18 -138 29 -16 49 -17 146 -12 l111 6 86 -36
c110 -48 115 -54 79 -100 -23 -28 -35 -35 -64 -35 -34 0 -48 -10 -88 -62 -13
-17 -8 -18 64 -18 68 0 77 2 82 20 6 24 32 33 68 24 17 -4 32 -1 44 10 16 15
20 15 31 2 6 -9 28 -18 49 -22 20 -3 46 -13 59 -21 15 -9 43 -13 79 -11 l56 3
-42 53 c-37 47 -45 52 -81 52 -75 0 -57 29 50 79 36 17 70 31 76 31 6 0 40 -9
74 -20 35 -11 71 -18 80 -15 9 3 42 34 73 69 47 53 75 73 165 119 59 31 131
74 160 97 53 42 134 146 146 187 4 12 19 32 33 43 22 17 40 20 142 20 133 0
143 4 187 75 35 54 57 62 121 41 105 -35 264 -38 346 -7 34 13 95 68 113 102
18 36 19 109 1 109 -7 0 -40 -15 -73 -32 -82 -46 -160 -45 -345 5 -248 68
-315 45 -348 -115 -14 -64 -30 -83 -63 -72 -12 4 -77 41 -143 82 -205 129
-268 148 -444 139 -64 -4 -156 -13 -206 -22 -134 -22 -352 -15 -403 14 -14 8
-12 12 16 28 38 21 39 25 11 38 -34 15 -28 28 26 58 l50 28 -145 -3 c-145 -3
-145 -3 -144 20 0 19 -4 22 -41 22 -23 0 -75 -8 -116 -19 -144 -36 -162 -35
-139 9 16 29 0 26 -110 -25z m1060 -637 c0 -33 -44 -122 -93 -189 -44 -61 -47
-63 -110 -74 -26 -4 -55 -22 -93 -56 -60 -54 -67 -54 -114 -4 -32 34 -22 49
57 94 34 18 66 44 72 57 10 23 9 23 -52 26 -59 3 -63 1 -80 -25 -25 -41 -61
-34 -65 12 -7 73 -3 77 109 90 62 7 140 24 203 46 153 52 166 53 166 23z
m-691 -154 c51 -58 52 -74 7 -74 -56 0 -96 19 -96 46 0 32 20 74 36 74 7 0 31
-21 53 -46z"/>
<path d="M4165 4650 c-22 -11 -65 -25 -95 -31 -30 -7 -50 -13 -45 -15 6 -1 22
-5 38 -8 41 -10 38 -57 -8 -103 -19 -19 -35 -41 -35 -49 0 -20 8 -18 42 11 19
16 42 25 63 25 25 0 42 8 64 33 28 29 31 39 31 95 0 34 -3 62 -7 61 -5 0 -26
-9 -48 -19z"/>
<path d="M4565 4444 c-21 -14 -48 -38 -59 -52 -11 -15 -35 -42 -53 -60 l-33
-34 0 -579 0 -579 100 0 100 0 0 665 c0 366 -4 665 -9 665 -4 0 -25 -12 -46
-26z"/>
<path d="M3648 4362 l-28 -3 0 -610 0 -609 100 0 100 0 0 485 0 485 -80 0
c-94 0 -99 8 -50 82 41 61 55 72 96 71 30 -1 34 2 34 26 0 23 -7 29 -52 46
-75 27 -89 31 -120 27z"/>
<path d="M4188 4313 c-24 -6 -23 -15 7 -43 l25 -23 0 36 c0 20 -3 36 -7 36 -5
-1 -16 -3 -25 -6z"/>
<path d="M4020 3645 l0 -505 100 0 100 0 0 485 0 485 -35 0 c-19 0 -57 9 -85
20 -28 11 -57 20 -65 20 -13 0 -15 -68 -15 -505z"/>
<path d="M2365 2987 c-58 -19 -82 -34 -132 -80 -74 -68 -88 -105 -88 -227 0
-68 5 -113 13 -128 l13 -23 58 48 58 48 -26 34 c-53 70 -26 153 67 212 51 32
83 37 102 14 20 -24 -5 -83 -190 -454 -93 -187 -176 -357 -184 -376 l-15 -35
73 0 74 0 13 33 c7 17 58 125 114 238 149 301 236 442 298 479 74 46 70 13
-26 -193 -88 -188 -247 -544 -247 -552 0 -3 30 -5 68 -5 l68 0 43 103 c62 143
183 378 227 438 35 49 105 96 124 84 22 -14 6 -55 -75 -190 -106 -178 -127
-224 -132 -299 -6 -82 16 -126 73 -145 36 -13 46 -12 97 4 31 9 71 28 89 40
l32 22 33 -35 c30 -32 37 -34 78 -30 26 3 65 19 94 38 l51 32 26 -31 c50 -60
156 -62 231 -5 19 14 34 20 38 14 14 -22 86 -50 130 -50 161 0 228 175 115
304 -58 68 -59 79 -10 132 49 53 51 87 7 92 -39 5 -89 -48 -112 -118 -10 -30
-35 -85 -56 -121 -31 -54 -44 -68 -69 -73 -23 -4 -35 -14 -45 -41 -8 -19 -15
-43 -15 -54 0 -11 -11 -28 -24 -36 -31 -20 -76 -3 -76 30 0 20 116 233 162
298 l19 27 -51 0 c-62 0 -124 -29 -148 -70 -9 -17 -37 -66 -61 -110 -56 -102
-105 -160 -136 -160 -57 0 -30 84 78 250 52 78 55 85 35 88 -74 12 -147 -42
-203 -150 -82 -161 -167 -225 -226 -172 -17 15 -20 27 -16 61 6 57 64 175 144
297 71 107 99 180 83 221 -17 46 -73 57 -150 30 -59 -21 -60 -20 -54 29 9 63
-1 93 -38 112 -40 21 -110 14 -149 -15 -39 -29 -46 -27 -54 15 -9 52 -25 82
-52 100 -33 21 -119 27 -168 11z m1325 -712 c19 -59 -15 -151 -66 -173 -27
-13 -77 -16 -87 -6 -11 11 5 35 29 45 18 6 24 16 24 39 0 17 14 58 31 91 33
67 48 68 69 4z"/>
<path d="M4285 2965 c-99 -27 -101 -28 -143 -117 -21 -46 -44 -98 -51 -115
l-13 -33 -84 0 -84 0 -25 -50 c-14 -27 -25 -52 -25 -56 0 -3 37 -4 83 -3 68 3
82 1 79 -11 -1 -8 -35 -96 -75 -195 -67 -168 -72 -185 -72 -256 0 -88 14 -112
75 -130 50 -15 131 8 193 56 51 39 57 41 57 21 0 -8 12 -29 27 -46 24 -30 30
-32 74 -28 31 3 66 17 100 38 l52 34 22 -26 c44 -51 87 -57 156 -22 22 11 29
11 45 -1 23 -17 68 -19 95 -4 11 5 30 34 43 64 32 71 65 119 129 184 53 54 99
85 111 74 13 -14 4 -39 -38 -102 -97 -144 -76 -233 56 -232 63 0 114 19 163
62 20 18 37 30 38 28 1 -2 10 -21 20 -41 15 -35 20 -38 59 -38 24 0 63 9 87
21 25 11 48 16 53 11 17 -17 -43 -82 -105 -113 -148 -74 -243 -226 -207 -334
15 -46 61 -71 114 -61 74 14 145 105 215 277 41 100 61 118 96 83 17 -17 18
-17 31 1 19 26 14 37 -24 55 -17 8 -32 21 -32 27 0 18 90 189 133 253 29 43
37 64 37 100 0 127 -122 166 -277 90 -71 -35 -116 -83 -163 -173 -55 -104
-136 -175 -185 -163 -50 13 -38 72 33 168 100 136 97 208 -10 208 -35 0 -54
-7 -88 -32 -24 -18 -49 -37 -56 -43 -20 -14 -26 -1 -13 29 20 42 0 53 -56 31
-50 -18 -103 -66 -121 -106 -38 -88 -84 -168 -116 -202 -30 -32 -42 -38 -70
-35 -31 3 -33 5 -36 45 -3 47 25 113 59 137 33 23 22 98 -20 140 -29 29 -36
31 -104 31 -56 0 -83 -5 -122 -24 -68 -34 -155 -123 -189 -194 -19 -42 -42
-69 -84 -102 -64 -51 -95 -63 -117 -45 -34 28 -12 106 97 338 l71 152 817 0
817 0 19 47 c11 27 21 51 22 55 2 5 -359 8 -802 8 -443 0 -806 2 -806 5 0 18
58 151 90 207 37 65 38 68 17 67 -12 0 -44 -6 -72 -14z m253 -587 c21 -21 13
-53 -26 -114 -76 -118 -119 -153 -150 -122 -32 32 11 141 83 207 46 42 72 50
93 29z m1099 -5 c18 -46 -131 -248 -178 -241 -46 6 -30 92 32 178 49 68 131
103 146 63z m-237 -559 c-29 -67 -78 -142 -102 -155 -53 -29 -47 55 9 120 31
37 103 93 111 86 1 -1 -7 -24 -18 -51z"/>
</g>
</svg>
